<svg xmlns="http://www.w3.org/2000/svg" width="100%" height="100%" viewBox="0 0 500 500" fill-rule="evenodd" stroke-linejoin="round" stroke-miterlimit="2"><path d="M269.48 52.898c11.84-5.27 25.528-.016 30.624 11.428l123.172 276.65c4.042 9.077-.294 19.52-9.37 23.56-8.682 3.865-19.343.1-23.385-8.977l-57.28-128.656-39.465 17.57 30.75 69.064c6.15 13.813 9.537 28.855 9.24 44.12l-.064 35.968c-.213 9.08-7.314 16.497-16.79 16.46-9.255-.608-16.85-8.103-16.81-17.578l.364-46.977c-.265-2.72-.53-5.44-1.584-7.807L197.493 110.01c-5.095-11.445-.235-24.958 11.604-30.23l60.382-26.884zm1.382 33.905l-39.465 17.57 18.8 42.228 39.465-17.57-18.8-42.228zm10.436 129.653l39.465-17.57-18.625-41.834-39.465 17.57 18.625 41.834zm-5.712 118.872l-35.518 15.814 27.586 61.96c3.866 8.682-.47 19.125-8.758 22.815-9.077 4.04-18.948-.076-22.814-8.758l-27.587-61.96-35.913 15.99c-7.893 3.515-17.194-.383-20.71-8.276s-.01-17.02 7.882-20.533l35.914-16-9.665-21.706-17.364 7.732c-11.84 5.27-25.528.016-30.624-11.43l-37.953-85.244c-5.096-11.445.16-25.134 11.998-30.405l17.365-7.732-6.853-15.39-37.492 16.692c-7.498 3.34-16.448.23-19.787-7.268s.165-16.624 7.663-19.962l37.492-16.693-3.338-7.498c-3.866-8.683-.32-18.773 8.757-22.815 8.288-3.7 18.95.076 22.815 8.758l3.338 7.498 37.097-16.517c7.5-3.338 16.625.165 19.963 7.663s-.34 16.23-7.84 19.568l-37.097 16.517 6.853 15.392 17.365-7.732c11.84-5.27 25.528-.016 30.623 11.43L246.94 262.5c5.095 11.445-.16 25.134-12 30.405l-17.364 7.73 9.664 21.706 35.518-15.814c7.893-3.514 17.02-.01 20.533 7.882s.187 17.414-7.706 20.928zm-94.31-139.598l-49.33 21.964 10.367 23.284 49.33-21.964-10.367-23.284zm-27.72 70.506l11.597 26.047 49.33-21.964-11.597-26.047-49.33 21.964z" fill-rule="nonzero"/><path d="M250.808.001l.808.004 1.613.015.806.012.805.014.805.017.803.02.804.02.802.025.802.026.802.03.8.032 1.6.07.8.04.798.04.797.045.797.046 1.592.1.795.055.794.056 1.586.12.792.064.79.067.79.07.8.072.79.073.79.077.788.08.787.08.786.084.786.086.785.09.784.09.784.093.782.096.782.098.782.1.78.103.78.105.78.108 1.556.223.776.115.776.118.775.12.775.122.773.124.773.127.772.13.77.13.77.134.77.137.77.138.768.14.767.144.766.146.766.148.764.15.764.153.763.155.762.157.762.16.76.162.76.164.758.167.758.17.757.17.756.173.756.176.754.178.754.18.752.182.752.185.75.187.75.2.75.19.748.194.747.196.747.2.745.2.745.203.743.205.743.207.742.2.74.212.74.214.74.216.738.218.737.22.736.223.735.225.734.227.733.23.733.232.73.234.73.236.73.238.73.24.727.243.727.245.725.247.724.25.724.25.722.253.72.256.72.258.72.26.718.262.718.264.716.267.715.268.714.27.713.273.713.275 1.42.555.71.282.707.283.707.285.706.287.705.3.703.29.703.294.7.295.7.298.7.3.698.302.697.303.696.306.695.308.694.3 1.384.627.7.316.7.318.688.32.687.323.686.324.684.326.684.328.683.33.68.332.68.334.68.337.678.338.676.34.676.343.674.344.673.346.672.35.67.35.67.352.668.354.667.356.666.358.665.36.663.362.663.364.66.366.66.368.66.37.657.372.656.374.655.375.654.378.652.38.652.38.65.383.648.385.648.387.646.39.645.39.644.392 1.283.79.64.4.64.4.637.402.636.404.635.405 1.265.817.63.412.63.413.628.415.627.416.626.42.624.42.623.423.62.424.62.426.62.427 1.234.86 1.228.868.612.437 1.22.88.607.442.607.444.605.446.604.447.602.45.6.45.6.453.598.454.597.457.595.458.594.46.593.462.59.463.59.465.59.467.586.468.586.47.584.472.582.474.58.475.58.477.578.478.577.48.575.482.574.483.572.486.57.487.57.49.568.5.566.492.565.494.563.496.562.497.56.5.558.5.558.502.556.504.554.505.553.507.55.51.55.5.548.512.547.514.545.515.543.516.542.52.54.52.54.52.537.523.536.525 1.067 1.054.53.53.53.53.527.533.527.534.525.536.523.537.52.54.52.54.52.542.516.543.515.545.514.547.512.548.5.55.51.55.507.553.505.554.504.556.502.558.5.558.5.56.497.562.496.563.494.565.492.566.5.568.49.57.487.57.486.572.483.574.482.575.48.577.478.578.477.58.475.58.474.582.472.584.47.586.468.586.467.59.465.59.463.59.462.593.46.594.458.595.457.597.454.598.453.6.45.6.45.602.447.604.446.605.444.607.442.607.88 1.22.437.612.868 1.228.43.617.43.617.427.62.426.62.424.62.423.623.42.624.42.626.416.627.415.628.413.63.412.63.41.632.408.633.405.635.404.636.402.637.4.64.4.64.396.64.395.642.392.644.39.645.39.646.387.648.385.648.383.65.38.652.38.652.378.654.375.655.374.656.372.657.37.66.368.66.366.66.364.663.362.663.36.665.358.666.356.667.354.668.352.67.35.67.35.672.346.673.344.674.343.676.34.676.338.678.337.68.334.68.332.68.33.683.328.684.326.684.647 1.373.32.688.318.7.316.7.627 1.384.3.694.308.695.306.696.303.697.302.698.3.7.298.7.295.7.294.703.29.703.3.705.287.706.285.707.283.707.282.71.555 1.42.275.713.273.713.27.714.268.715.267.716.264.718.262.718.26.72.258.72.256.72.253.722.25.724.25.724.247.725.245.727.243.727.24.73.238.73.236.73.234.73.232.733.23.733.227.734.225.735.223.736.22.737.218.738.216.74.214.74.212.74.2.742.207.743.205.743.203.745.2.745.2.747.196.747.194.748.19.75.2.75.187.75.185.752.182.752.18.754.178.754.176.756.173.756.17.757.17.758.167.758.164.76.162.76.16.762.157.762.155.763.153.764.15.764.148.766.146.766.144.767.14.768.138.77.137.77.134.77.13.77.13.772.127.773.124.773.122.775.12.775.118.776.115.776.223 1.556.108.78.105.78.103.78.1.782.098.782.096.782.093.784.09.784.09.785.086.786.084.786.08.787.08.788.077.79.145 1.58.07.79.067.79.064.792.06.793.06.793.056.794.055.795.1 1.592.046.797.045.797.04.798.04.8.07 1.6.032.8.03.802.026.802.025.802.02.804.02.803.017.805.014.805.012.806.015 1.613.004.808V250v.808l-.004.808-.007.807-.008.806-.012.806-.014.805-.017.805-.02.803-.02.804-.025.802-.026.802-.03.802-.032.8-.035.8-.036.8-.08 1.597-.045.797-.046.797-.1 1.592-.055.795-.056.794-.06.793-.06.793-.064.792-.067.79-.07.79-.145 1.58-.077.79-.08.788-.08.787-.084.786-.086.786-.09.785-.09.784-.093.784-.096.782-.098.782-.1.782-.103.78-.105.78-.108.78-.223 1.556-.115.776-.118.776-.12.775-.122.775-.124.773-.127.773-.26 1.543-.134.77-.137.77-.138.77-.14.768-.144.767-.146.766-.148.766-.15.764-.153.764-.155.763-.157.762-.16.762-.162.76-.164.76-.167.758-.17.758-.17.757-.173.756-.176.756-.178.754-.18.754-.182.752-.185.752-.187.75-.2.75-.19.75-.194.748-.196.747-.2.747-.2.745-.203.745-.205.743-.207.743-.2.742-.212.74-.214.74-.216.74-.218.738-.22.737-.223.736-.225.735-.227.734-.23.733-.232.733-.234.73-.236.73-.238.73-.24.73-.243.727-.245.727-.247.725-.25.724-.25.724-.253.722-.256.72-.258.72-.26.72-.262.718-.264.718-.267.716-.268.715-.27.714-.273.713-.275.713-.277.71-.278.7-.282.71-.283.707-.285.707-.287.706-.3.705-.29.703-.294.703-.295.7-.298.7-.3.7-.302.698-.303.697-.306.696-.308.695-.3.694-.627 1.384-.316.7-.318.7-.32.688-.323.687-.324.686-.326.684-.328.684-.33.683-.332.68-.334.68-.337.68-.338.678-.34.676-.343.676-.344.674-.346.673-.35.672-.35.67-.352.67-.354.668-.356.667-.358.666-.36.665-.362.663-.364.663-.366.66-.368.66-.37.66-.372.657-.374.656-.375.655-.378.654-.38.652-.38.652-.383.65-.385.648-.387.648-.39.646-.39.645-.392.644-.395.642-.396.64-.4.64-.4.64-.402.637-.404.636-.405.635-.408.633-.41.632-.412.63-.413.63-.415.628-.416.627-.42.626-.42.624-.423.623-.424.62-.426.62-.427.62-.43.617-.43.617-.868 1.228-.437.612-.88 1.22-.442.607-.444.607-.446.605-.447.604-.45.602-.45.6-.453.6-.454.598-.457.597-.458.595-.46.594-.462.593-.463.59-.465.59-.467.59-.468.586-.47.586-.472.584-.474.582-.475.58-.477.58-.478.578-.48.577-.482.575-.483.574-.486.572-.487.57-.49.57-.5.568-.492.566-.494.565-.496.563-.497.562-.5.56-.5.558-.502.558-.504.556-.505.554-.507.553-.51.55-.5.55-.512.548-.514.547-.515.545-.516.543-1.04 1.083-.52.54-.523.537-.525.536-1.054 1.067-.53.53-.53.53-1.067 1.054-.536.525-.537.523-.54.52-.54.52-.542.52-.543.516-.545.515-.547.514-.548.512-.55.5-.55.51-.553.507-.554.505-.556.504-.558.502-.558.5-.56.5-.562.497-.563.496-.565.494-.566.492-.568.5-.57.49-.57.487-.572.486-.574.483-.575.482-.577.48-.578.478-.58.477-.58.475-.582.474-.584.472-.586.47-.586.468-.59.467-.59.465-.59.463-.593.462-.594.46-.595.458-.597.457-.598.454-.6.453-.6.45-.602.45-.604.447-.605.446-.607.444-.607.442-1.22.88-.612.437-1.228.868-1.234.86-.62.427-.62.426-.62.424-.623.423-.624.42-.626.42-.627.416-.628.415-.63.413-.63.412-.632.41-.633.408-.635.405-.636.404-.637.402-.64.4-.64.4-.64.396-.642.395-.644.392-.645.39-.646.39-.648.387-.648.385-.65.383-.652.38-.652.38-.654.378-.655.375-.656.374-.657.372-.66.37-.66.368-.66.366-.663.364-.663.362-.665.36-.666.358-.667.356-.668.354-.67.352-.67.35-.672.35-.673.346-.674.344-.676.343-.676.34-.678.338-.68.337-.68.334-.68.332-.683.33-.684.328-.684.326-.686.324-.687.323-.688.32-.7.318-.7.316-1.384.627-.694.3-.695.308-.696.306-1.395.605-.7.3-.7.298-.7.295-.703.294-.703.29-.705.3-.706.287-.707.285-.707.283-.71.282-.7.278-.71.277-.713.275-.713.273-.714.27-.715.268-.716.267-.718.264-.718.262-.72.26-.72.258-.72.256-.722.253-.724.25-.724.25-.725.247-.727.245-.727.243-.73.24-.73.238-.73.236-.73.234-.733.232-.733.23-.734.227-.735.225-.736.223-.737.22-.738.218-.74.216-.74.214-.74.212-.742.2-.743.207-.743.205-.745.203-.745.2-.747.2-.747.196-.748.194-.75.19-.75.2-.75.187-.752.185-.752.182-.754.18-.754.178-.756.176-.756.173-.757.17-.758.17-.758.167-.76.164-.76.162-.762.16-.762.157-.763.155-.764.153-.764.15-.766.148-.766.146-.767.144-.768.14-.77.138-.77.137-.77.134-.77.13-.772.13-.773.127-.773.124-.775.122-.775.12-.776.118-.776.115-1.556.223-.78.108-.78.105-.78.103-.782.1-.782.098-.782.096-.784.093-.784.09-.785.09-.786.086-.786.084-.787.08-.788.08-.79.077-.79.073-.8.072-.79.07-.79.067-.792.064-1.586.12-.794.056-.795.055-1.592.1-.797.046-.797.045-.798.04-.8.04-1.6.07-.8.032-.802.03-.802.026-.802.025-.804.02-.803.02-.805.017-.805.014-.806.012-1.613.015-.808.004H250h-.808l-.808-.004-.807-.007-.806-.008-.806-.012-.805-.014-.805-.017-.803-.02-.804-.02-1.604-.05-.802-.03-.8-.032-.8-.035-.8-.036-.8-.04-.798-.04-1.594-.09-.796-.05-.796-.05-.795-.055-.794-.056-.793-.06-.793-.06-.792-.064-.79-.067-.79-.07-.8-.072-.79-.073-.79-.077-.788-.08-.787-.08-.786-.084-.786-.086-.785-.09-.784-.09-.784-.093-.782-.096-.782-.098-.782-.1-.78-.103-.78-.105-.78-.108-.778-.11-.778-.112-.776-.115-.776-.118-.775-.12-.775-.122-.773-.124-.773-.127-.772-.13-.77-.13-.77-.134-1.538-.275-.768-.14-.767-.144-.766-.146-.766-.148-.764-.15-.764-.153-.763-.155-.762-.157-.762-.16-.76-.162-.76-.164-.758-.167-.758-.17-.757-.17-.756-.173-.756-.176-.754-.178-.754-.18-.752-.182-.752-.185-.75-.187-1.5-.38-.748-.194-.747-.196-.747-.2-.745-.2-.745-.203-.743-.205-.743-.207-.742-.2-.74-.212-.74-.214-.74-.216-.738-.218-.737-.22-.736-.223-.735-.225-.734-.227-.733-.23-.733-.232-.73-.234-.73-.236-.73-.238-.73-.24-.727-.243-.727-.245-.725-.247-.724-.25-.724-.25-.722-.253-.72-.256-.72-.258-.72-.26-.718-.262-.718-.264-.716-.267-.715-.268-.714-.27-.713-.273-.713-.275-.71-.277-.7-.278-.71-.282-.707-.283-.707-.285-.706-.287-.705-.3-.703-.29-.703-.294-.7-.295-.7-.298-.7-.3-.698-.302-.697-.303-.696-.306-.695-.308-.694-.3-.692-.313-.692-.314-.7-.316-.7-.318-.688-.32-.687-.323-.686-.324-.684-.326-.684-.328-.683-.33-.68-.332-.68-.334-.68-.337-.678-.338-.676-.34-.676-.343-.674-.344-.673-.346-.672-.35-.67-.35-.67-.352-.668-.354-.667-.356-.666-.358-.665-.36-.663-.362-.663-.364-.66-.366-.66-.368-.66-.37-.657-.372-1.31-.75-.654-.378-.652-.38-.652-.38-.65-.383-.648-.385-.648-.387-.646-.39-.645-.39-.644-.392-.642-.395-.64-.396-.64-.4-.64-.4-.637-.402-.636-.404-.635-.405-.633-.408-.632-.41-.63-.412-.63-.413-.628-.415-.627-.416-.626-.42-.624-.42-.623-.423-.62-.424-.62-.426-.62-.427-.617-.43-.617-.43-1.228-.868-.612-.437-.6-.44-.6-.44-.607-.442-.607-.444-.605-.446-.604-.447-.602-.45-.6-.45-.6-.453-.598-.454-.597-.457-.595-.458-.594-.46-.593-.462-.59-.463-.59-.465-.59-.467-.586-.468-.586-.47-.584-.472-.582-.474-.58-.475-.58-.477-.578-.478-.577-.48-.575-.482-.574-.483-.572-.486-.57-.487-.57-.49-.568-.5-.566-.492-.565-.494-.563-.496-.562-.497-.56-.5-.558-.5-.558-.502-.556-.504-.554-.505-.553-.507-.55-.51-.55-.5-.548-.512-.547-.514-.545-.515-.543-.516-.542-.52-.54-.52-.54-.52-.537-.523-.536-.525-.534-.527-.533-.527-.53-.53-.53-.53-.527-.533-.527-.534-.525-.536-.523-.537-.52-.54-.52-.54-.52-.542-.516-.543-.515-.545-.514-.547-.512-.548-1.02-1.1-.507-.553-.505-.554-.504-.556-.502-.558-.5-.558-.5-.56-.497-.562-.496-.563-.494-.565-.492-.566-.5-.568-.49-.57-.487-.57-.486-.572-.483-.574-.482-.575-.48-.577-.478-.578-.477-.58-.475-.58-.474-.582-.472-.584-.47-.586-.468-.586-.467-.59-.465-.59-.463-.59-.462-.593-.46-.594-.458-.595-.457-.597-.454-.598-.453-.6-.45-.6-.45-.602-.447-.604-.446-.605-.444-.607-.442-.607-.44-.6-.44-.6-.437-.612-.868-1.228-.43-.617-.43-.617-.427-.62-.426-.62-.424-.62-.423-.623-.42-.624-.42-.626-.416-.627-.415-.628-.413-.63-.412-.63-.41-.632-.408-.633-.405-.635-.404-.636-.402-.637-.4-.64-.4-.64-.396-.64-.395-.642-.392-.644-.39-.645-.39-.646-.387-.648-.385-.648-.383-.65-.38-.652-.38-.652-.378-.654-.375-.655-.374-.656-.372-.657-.37-.66-.368-.66-.366-.66-.364-.663-.362-.663-.36-.665-.358-.666-.356-.667-.354-.668-.352-.67-.35-.67-.35-.672-.346-.673-.344-.674-.343-.676-.34-.676-.338-.678-.337-.68-.334-.68-.332-.68-.33-.683-.328-.684-.326-.684-.324-.686-.323-.687-.32-.688-.318-.7-.316-.7-.314-.692-.313-.692-.3-.694-.308-.695-.306-.696-.303-.697-.302-.698-.3-.7-.298-.7-.295-.7-.294-.703-.29-.703-.3-.705-.287-.706-.285-.707-.283-.707-.282-.71-.278-.7-.277-.71-.275-.713-.273-.713-.27-.714-.535-1.43-.264-.718-.262-.718-.26-.72-.258-.72-.256-.72-.253-.722-.25-.724-.25-.724-.247-.725-.245-.727-.243-.727-.24-.73-.238-.73-.236-.73-.234-.73-.232-.733-.23-.733-.227-.734-.225-.735-.223-.736-.22-.737-.218-.738-.216-.74-.214-.74-.212-.74-.2-.742-.207-.743-.205-.743-.203-.745-.2-.745-.2-.747-.196-.747-.194-.748-.38-1.5-.187-.75-.185-.752-.182-.752-.18-.754-.178-.754-.176-.756-.173-.756-.17-.757-.17-.758-.167-.758-.164-.76-.162-.76-.16-.762-.157-.762-.155-.763-.153-.764-.15-.764-.148-.766-.146-.766-.144-.767-.14-.768-.275-1.538-.134-.77-.13-.77-.13-.772-.127-.773-.124-.773-.122-.775-.12-.775-.118-.776-.115-.776-.112-.778-.11-.778-.108-.78-.105-.78-.103-.78-.1-.782-.098-.782-.096-.782-.093-.784-.09-.784-.09-.785-.086-.786-.084-.786-.08-.787-.08-.788-.077-.79-.073-.79-.072-.8-.07-.79-.067-.79-.064-.792-.06-.793-.06-.793-.11-1.59-.05-.796-.05-.796-.09-1.594-.04-.798-.04-.8-.036-.8-.035-.8-.032-.8-.03-.802-.05-1.604-.02-.804-.02-.803-.017-.805-.014-.805-.012-.806-.008-.806-.007-.807-.004-.808L0 250l.001-.808.004-.808.007-.807.008-.806.012-.806.014-.805.017-.805.02-.803.02-.804.025-.802.026-.802.03-.802.032-.8.035-.8.036-.8.04-.8.04-.798.09-1.594.05-.796.05-.796.055-.795.056-.794.12-1.586.064-.792.067-.79.07-.79.072-.8.073-.79.077-.79.08-.788.08-.787.084-.786.086-.786.09-.785.09-.784.093-.784.096-.782.098-.782.1-.782.103-.78.105-.78.108-.78.11-.778.112-.778.115-.776.118-.776.12-.775.122-.775.124-.773.127-.773.13-.772.13-.77.134-.77.275-1.538.14-.768.144-.767.146-.766.148-.766.15-.764.153-.764.155-.763.157-.762.16-.762.162-.76.164-.76.167-.758.17-.758.17-.757.173-.756.176-.756.178-.754.18-.754.182-.752.185-.752.187-.75.2-.75.19-.75.194-.748.196-.747.2-.747.2-.745.203-.745.205-.743.207-.743.2-.742.212-.74.214-.74.216-.74.218-.738.22-.737.223-.736.225-.735.227-.734.23-.733.232-.733.234-.73.236-.73.238-.73.24-.73.243-.727.245-.727.247-.725.25-.724.25-.724.253-.722.256-.72.258-.72.26-.72.262-.718.264-.718.267-.716.268-.715.27-.714.273-.713.275-.713.277-.71.278-.7.282-.71.283-.707.285-.707.287-.706.3-.705.29-.703.294-.703.295-.7.298-.7.3-.7.605-1.395.306-.696.308-.695.3-.694.313-.692.314-.692.316-.7.318-.7.32-.688.323-.687.324-.686.326-.684.328-.684.33-.683.332-.68.334-.68.337-.68.338-.678.34-.676.343-.676.344-.674.346-.673.35-.672.35-.67.352-.67.354-.668.356-.667.358-.666.36-.665.362-.663.364-.663.366-.66.368-.66.37-.66.372-.657.374-.656.375-.655.378-.654.38-.652.38-.652.383-.65.385-.648.387-.648.39-.646.39-.645.392-.644.395-.642.396-.64.4-.64.4-.64.402-.637.404-.636.405-.635.408-.633.41-.632.412-.63.413-.63.415-.628.416-.627.42-.626.42-.624.423-.623.424-.62.426-.62.427-.62.86-1.234.868-1.228.437-.612.44-.6.44-.6.442-.607.444-.607.446-.605.447-.604.45-.602.45-.6.453-.6.454-.598.457-.597.458-.595.46-.594.462-.593.463-.59.465-.59.467-.59.468-.586.47-.586.472-.584.474-.582.475-.58.477-.58.478-.578.48-.577.482-.575.483-.574.486-.572.487-.57.49-.57.5-.568.492-.566.494-.565.496-.563.497-.562.5-.56.5-.558.502-.558.504-.556.505-.554.507-.553.51-.55.5-.55.512-.548.514-.547.515-.545.516-.543.52-.542.52-.54.52-.54.523-.537.525-.536 1.054-1.067.53-.53.53-.53.533-.527.534-.527.536-.525.537-.523.54-.52.54-.52.542-.52.543-.516.545-.515.547-.514.548-.512.55-.5.55-.51.553-.507.554-.505.556-.504.558-.502.558-.5.56-.5.562-.497.563-.496.565-.494.566-.492.568-.5.57-.49.57-.487.572-.486.574-.483.575-.482.577-.48.578-.478.58-.477.58-.475.582-.474.584-.472.586-.47.586-.468.59-.467.59-.465.59-.463.593-.462.594-.46.595-.458.597-.457.598-.454.6-.453.6-.45.602-.45.604-.447.605-.446.607-.444.607-.442.6-.44.6-.44.612-.437 1.228-.868.617-.43.617-.43.62-.427.62-.426.62-.424.623-.423.624-.42.626-.42.627-.416.628-.415.63-.413.63-.412.632-.41.633-.408.635-.405.636-.404.637-.402.64-.4.64-.4.64-.396.642-.395.644-.392.645-.39.646-.39.648-.387.648-.385.65-.383.652-.38.652-.38.654-.378.655-.375.656-.374.657-.372 1.32-.737.66-.366.663-.364.663-.362.665-.36.666-.358.667-.356.668-.354.67-.352.67-.35.672-.35.673-.346.674-.344.676-.343.676-.34 1.357-.675.68-.334.68-.332.683-.33.684-.328.684-.326.686-.324.687-.323.688-.32.7-.318.7-.316.692-.314.692-.313.694-.3.695-.308.696-.306.697-.303.698-.302.7-.3.7-.298.7-.295.703-.294.703-.29.705-.3.706-.287.707-.285.707-.283.71-.282.7-.278.71-.277.713-.275.713-.273.714-.27.715-.268.716-.267.718-.264.718-.262.72-.26.72-.258.72-.256.722-.253.724-.25.724-.25.725-.247.727-.245.727-.243.73-.24.73-.238.73-.236.73-.234.733-.232.733-.23.734-.227.735-.225.736-.223.737-.22.738-.218.74-.216.74-.214.74-.212.742-.2.743-.207.743-.205.745-.203.745-.2.747-.2.747-.196.748-.194.75-.19.75-.2.75-.187.752-.185 1.506-.363.754-.178.756-.176.756-.173.757-.17.758-.17.758-.167.76-.164.76-.162.762-.16.762-.157.763-.155.764-.153.764-.15.766-.148.766-.146.767-.144.768-.14.77-.138.77-.137.77-.134 1.543-.26.773-.127.773-.124.775-.122.775-.12.776-.118.776-.115.778-.112.778-.11.78-.108.78-.105.78-.103.782-.1.782-.098.782-.096.784-.093.784-.09.785-.09.786-.086.786-.084.787-.08.788-.08.79-.077L227.6.99l.79-.07.79-.067.792-.064.793-.06.793-.06 1.59-.11.796-.05.796-.05.797-.046.797-.045 1.597-.08.8-.036.8-.035.8-.032.802-.03 1.604-.05.804-.02.803-.02.805-.017.805-.014.806-.012.806-.008.807-.007.808-.004L250 0l.808.001zm-1.473 45l-.665.003-.665.006-.663.007-.663.01-.663.012-1.323.03-.66.018-.66.02-.66.022-.66.024-.658.026-.658.028-.657.03-1.312.067-.656.036-.654.04-.654.04-.653.043-.653.044-.652.047-.652.05-.65.05-.65.053-.65.054-.65.057-.648.06-.648.06-.647.062-.646.065-.646.067-.645.068-.645.07-.643.073-.643.074-.643.077-.642.08-.64.08-.64.083-.64.084-1.278.175-.638.1-.637.093-.636.094-.636.096-.635.1-.635.1-.634.102-.633.104-.632.106-.632.108-.63.11-.63.112-.63.114-.63.115-.628.118-.628.12-.627.12-.626.123-.626.125-.624.127-.624.13-.624.13-.622.133-.622.134-1.242.275-.62.14-.62.142-.618.144-.618.146-.617.147-.616.15-.615.15-.615.153-.614.155-.613.157-.612.16-.612.16-.61.162-.6.164-.61.166-.61.168-.608.17-.607.172-.606.173-.606.175-.605.177-.604.18-.603.18-.602.182-.602.185-.6.186-.6.187-.6.2-.598.192-.598.193-.597.195-.596.197-.595.198-.595.2-1.187.406-.592.206-.59.208-.59.21-.59.21-.59.212-.588.215-.587.216-.587.218-.585.22-.585.22-.584.223-.583.225-.582.227-.58.228-.58.23-.58.232-.58.234-.578.235-.577.237-.576.24-.575.24-.575.242-.573.244-.573.245-.572.247-.57.25-.57.25-.57.252-.568.254-1.134.513-.565.26-.565.26-.564.262-.562.264-.562.266-.56.267-.56.27-.56.27-.56.272-.557.274-.556.275-.556.278-.554.278-.554.28-.552.282-.552.284-.55.285-.55.287-.55.29-.548.3-.547.292-.545.294-.545.295-.544.296-.543.3-.542.3-.54.3-.54.303-.54.305-.538.306-.537.308-1.07.62-.534.313-.533.314-.533.316-.53.317-.53.32-.53.32-.528.322-.527.323-.526.325-.525.327-.523.328-.523.33-.522.33-.52.333-.52.334-.52.336-.517.338-1.032.68-.514.342-.513.343-.512.345-.51.347-.5.348-.51.35-.508.35-.507.353-1 .71-.503.357-.502.36-.502.36-.5.36-.5.363-.498.364-.496.366-.496.367-.494.37-.493.37-.493.372-.49.373-.5.374-.488.376-.488.378-.972.76-.484.382-.483.383-.482.384-.48.386-.48.388-.478.388-.477.39-.476.39-.475.393-.473.395-.473.396-.47.397-.47.398-.937.802-.466.403-.465.404-.464.405-.463.407-.46.41-.46.41-.46.41-.458.413-.456.413-.456.415-.454.417-.453.417-.45.42-.45.42-.45.422-.448.423-.447.424-.445.426-.444.427-.442.428-.44.43-.44.43-.44.432-.437.434-.436.435-.435.436-.434.437-.432.44-.43.44-.43.44-.428.442-.427.444-.426.445-.424.447-.423.448-.422.45-.42.45-.42.45-.417.453-.417.454-.415.456-.413.456-.413.458-.41.46-.41.46-.41.46-.407.463-.405.464-.404.465-.403.466-.802.937-.398.47-.397.47-.396.473-.395.473-.393.475-.782.953-.388.478-.388.48-.386.48-.384.482-.383.483-.382.484-.76.972-.378.488-.376.488-.374.5-.373.49-.372.493-.37.493-.37.494-.367.496-.366.496-.364.498-.363.5-.36.5-.36.502-.36.502-.357.503-.355.505-.354.505-.353.507-.35.508-.35.51-.348.5-.347.51-.345.512-.343.513-.342.514-.68 1.032-.338.517-.336.52-.334.52-.333.52-.33.522-.33.523-.328.523-.327.525-.325.526-.323.527-.322.528-.32.53-.32.53-.317.53-.316.533-.314.533-.313.534-.62 1.07-.308.537-.306.538-.305.54-.303.54-.3.54-.3.542-.3.543-.296.544-.295.545-.294.545-.292.547-.3.548-.29.55-.287.55-.285.55-.284.552-.282.552-.28.554-.278.554-.278.556-.275.556-.274.557-.272.56-.27.56-.27.56-.267.56-.266.562-.264.562-.262.564-.26.565-.26.565-.513 1.134-.254.568-.252.57-.25.57-.25.57-.247.572-.245.573-.244.573-.242.575-.24.575-.24.576-.237.577-.235.578-.234.58-.232.58-.23.58-.228.58-.227.582-.225.583-.223.584-.22.585-.22.585-.218.587-.216.587-.215.588-.423 1.178-.21.59-.208.59-.206.592-.203.593-.203.594-.2.595-.198.595-.197.596-.195.597-.193.598-.192.598-.2.6-.187.6-.186.6-.185.602-.182.602-.18.603-.18.604-.177.605-.175.606-.173.606-.172.607-.17.608-.168.61-.166.61-.164.6-.162.61-.16.612-.16.612-.157.613-.155.614-.153.615-.15.615-.15.616-.147.617-.146.618-.144.618-.142.62-.14.62-.275 1.242-.134.622-.133.622-.13.624-.13.624-.127.624-.125.626-.123.626-.12.627-.12.628-.118.628-.115.63-.114.63-.112.63-.11.63-.108.632-.106.632-.104.633-.102.634-.1.635-.1.635-.096.636-.094.636-.093.637-.1.638-.088.64-.087.64-.167 1.28-.08.64-.08.642-.077.643-.147 1.286-.07.645-.068.645-.067.646-.065.646-.062.647-.06.648-.06.648-.057.65-.054.65-.053.65-.05.65-.05.652-.047.652-.044.653-.043.653-.04.654-.04.654-.036.656-.034.655-.033.657-.03.657-.028.658-.026.658-.024.66-.022.66-.02.66-.018.66-.03 1.323-.012.663-.01.663-.013 1.328-.003.665V250v.665l.003.665.006.665.007.663.01.663.012.663.014.662.015.66.018.66.02.66.022.66.024.66.026.658.028.658.03.657.033.657.034.655.036.656.04.654.04.654.043.653.044.653.047.652.05.652.05.65.053.65.054.65.057.65.06.648.06.648.062.647.065.646.135 1.29.07.645.073.643.074.644.077.642.08.642.08.64.083.64.084.64.087.64.088.638.1.638.093.637.094.636.096.636.1.635.1.635.102.634.104.633.106.632.107.632.1.63.112.63.114.63.115.63.118.628.12.628.12.627.123.626.125.625.127.625.13.624.13.624.133.623.134.62.137.62.138.62.14.62.142.62.144.618.146.618.147.616.15.617.15.615.153.615.155.614.157.613.16.612.16.612.162.61.164.6.166.61.168.61.17.608.172.607.173.606.175.606.177.605.18.604.18.603.182.603.185.6.186.6.187.6.2.6.192.598.193.598.195.597.197.596.198.595.2.595.406 1.187.206.592.417 1.182.21.59.212.59.215.588.216.587.218.587.22.585.22.585.223.584.225.583.227.582.228.58.23.58.232.58.234.58.235.578.237.577.238.576.24.575.242.575.244.573.245.573.248.572.248.57.25.57.252.57.254.568.256.567.257.567.26.565.26.565.262.564.264.563.266.56.267.56.27.56.543 1.118.274.557.275.556.278.556.56 1.108.282.552.284.552.285.55.287.55.29.55.3.548.292.546.294.547.295.545.296.543.3.544.6 1.082.303.54.305.54.306.538.308.538.62 1.07.313.534.314.533.316.533.317.53.32.53.32.53.322.528.323.527.325.526.327.524.328.524.33.523.33.522.667 1.04.336.518.338.518.34.516.34.516.342.514.343.513.346.512.346.51.348.5.7 1.017.353.506.354.506.355.505.357.503.36.503.36.5.362.5.363.5.364.498.366.496.367.496.37.494.37.493.372.493.373.49.374.5.376.488.378.488.76.972.382.484.383.483.385.482.385.48.388.48.39.48.4.477.39.476.393.475.395.473.396.473.397.47.398.47.4.47.402.468.403.466.404.465.406.464.406.462.408.462.4.46.41.458.413.458.413.457.415.455.417.454.417.453.42.45.42.45.422.45.423.447.424.446.426.446.427.444.428.442.43.442.43.44.432.438.434.438.435.436.436.435.438.434.878.863.442.43.442.428.89.853.447.424.448.424.448.42.45.42.452.42.452.417.454.417.912.83.458.412.458.41.46.4.46.408.463.407.464.405.465.404.466.403.936.8.47.4.47.397.472.396.473.395.475.392.476.392.477.39.958.776.48.385.483.385.482.383.484.382.486.38.487.38.487.377.488.375.5.375.49.373.492.37.494.37.495.37.495.367.496.366.498.364.5.363.5.36.502.36.502.36.503.356.505.356 1.012.707 1.016.7.51.348.51.347.512.345.513.343.515.342.515.34.516.34.517.338.52.336.52.334.52.333.522.33.523.33.523.328.525.327.526.325.527.323.527.322.53.32.53.32.53.317.533.316.533.314.534.313.535.31.536.31.536.308 1.078.61.54.303.542.3.542.3.543.3 1.09.592.545.293.547.292.548.3.55.29.55.287.55.285.552.284.552.282.555.28.553.278.555.277.557.276.557.274.56.272.56.27.56.27.56.267.563.266.562.264.564.262.565.26.566.26.565.257.568.256.57.254.568.252 1.142.5.57.247.573.245.573.244 1.15.483.576.238.577.237.577.235.58.234.58.232.58.23 1.164.455.583.225.585.223.584.22.585.22.587.218.587.216.588.215.59.212.6.21.6.21.59.208.592.206.593.203.593.202.596.2.595.2.596.196.598.195.596.193.6.192.6.2 1.2.374.602.184.602.182.603.18.604.18.605.177.606.175.607.173.607.172.607.17 1.218.334.61.164.6.162.61.16.614.16.613.157 1.228.308.615.15.616.15.617.147.618.146.618.144.62.142.62.14.62.138.62.137.62.134.623.133.623.13 1.25.256.626.125.625.123.627.12 1.255.237.63.115.63.114.63.112.63.11.632.108.632.106.634.104.634.102.633.1.636.1.636.096.636.094.637.093.638.1.64.088.64.087.64.084.64.083.64.08.642.08.643.077.643.074.644.073.644.07.644.068.647.067.646.065.647.063 1.296.12.65.057.65.054.65.053.65.05.652.05.652.047 1.306.087.654.04.655.04.655.036.655.034.657.033.657.03.657.028.66.026.66.024.66.022.66.02.66.018.66.015.662.014.663.012.663.01.663.007.665.006.665.003H250h.665l.665-.003.665-.006.663-.007.663-.01.663-.012.662-.014.66-.015.66-.018.66-.02.66-.022.66-.024.658-.026.658-.028.657-.03.657-.033.655-.034.655-.036.655-.04.654-.04.653-.043.653-.044.652-.047.652-.05.65-.05.65-.053.65-.054.65-.057.648-.06.648-.06.647-.063.646-.065.647-.067.644-.068.644-.07.644-.073.643-.074.643-.077.642-.08.64-.08.64-.083.64-.084.64-.087.64-.088.638-.1.637-.093.636-.094.636-.096.636-.1.633-.1.635-.102.634-.104.63-.106.632-.108.63-.11.63-.112.63-.114.63-.115.627-.118.628-.12.627-.12.626-.123.625-.125 1.25-.256.623-.13.623-.133.62-.134.62-.137.62-.138.62-.14.62-.142.62-.144.617-.146.617-.147.616-.15.615-.15.615-.154.613-.154.613-.157.614-.16.61-.16.6-.162.61-.164.6-.167.608-.167.608-.17.607-.172.606-.173.606-.175.605-.177.604-.18 1.206-.363.6-.184 1.2-.374.6-.2.6-.192.596-.193.598-.195.596-.196.595-.2.596-.2.593-.202.592-.203.593-.206.59-.207.6-.2.6-.21.59-.212.588-.215.587-.216.587-.218.586-.22.583-.22.585-.223.583-.225.58-.227.583-.228.58-.23.58-.232.58-.234.578-.235.577-.237.576-.238.575-.24.575-.242.573-.244.572-.245.573-.247 1.14-.5 1.138-.506.567-.256.565-.257.566-.26.565-.26.564-.262.563-.264 1.122-.533.56-.27.56-.27.56-.272.557-.274.557-.276 1.11-.555.554-.28.552-.282.552-.284.55-.285.55-.287.55-.29.548-.29.547-.29.546-.294.544-.295.544-.296.543-.3.542-.3.54-.302.54-.303.54-.305.54-.306.537-.308.535-.31.535-.31.534-.313.533-.314.533-.316.53-.317.53-.32.53-.32.527-.322.527-.323.526-.325.524-.327.524-.328.523-.33.522-.33 1.04-.667.52-.336.517-.338.516-.34.515-.34.515-.342.513-.343.512-.345.51-.347.5-.348.5-.35.507-.35.506-.352.506-.355.505-.356.503-.356.503-.36.5-.36.5-.36.5-.363.498-.364.496-.366.495-.367.494-.368.495-.37.492-.372.49-.373.5-.375.488-.375.488-.377.486-.38.486-.38.484-.382.482-.382.483-.386.48-.385.48-.387.48-.4.477-.4.476-.39.475-.393.473-.395.472-.396.472-.397.47-.4.468-.4.468-.4.466-.403.466-.404.926-.812.46-.408.46-.4.458-.41.458-.412.457-.414.455-.415.454-.417.452-.417.452-.42.45-.42.896-.845.446-.424.9-.853.442-.428.442-.43.44-.43.438-.432.438-.434.436-.435.435-.436.434-.438.432-.438.43-.44.43-.442.428-.442.427-.445.426-.445.424-.446.423-.448.422-.448.42-.45.42-.452.417-.452.417-.454.415-.455.414-.457.412-.458.41-.458.4-.46.408-.46.812-.926.807-.932.4-.468.4-.468.4-.47.397-.472.396-.472.395-.473.393-.475.39-.476.4-.477.4-.48.387-.48.385-.48.386-.483.382-.482.382-.484.38-.486.38-.486.377-.488.375-.488.375-.5.373-.49.372-.492.37-.495.368-.494.367-.495.366-.496.364-.498.363-.5.36-.5.36-.5.36-.503.356-.503.356-.505.355-.506.352-.506.35-.507.35-.5.348-.5.347-.51.345-.512.343-.513.342-.515.34-.515.34-.516.338-.517.336-.52.334-.52.333-.52.33-.522.33-.523.655-1.048.325-.526.323-.527.322-.527.32-.53.32-.53.317-.53.316-.533.314-.533.313-.534.31-.535.31-.535.308-.537.306-.54.305-.54.303-.54.302-.54.598-1.085.296-.544.295-.544.294-.546.582-1.095.29-.55.287-.55.285-.55.284-.552.282-.552.28-.554.278-.555.277-.554.276-.557.274-.557.272-.56.27-.56.27-.56.533-1.122.264-.563.262-.564.26-.565.26-.566.257-.565.256-.567.506-1.138.25-.57.25-.57.247-.573.245-.572.244-.573.242-.575.24-.575.238-.576.237-.577.235-.578.234-.58.232-.58.23-.58.455-1.164.225-.583.223-.585.22-.583.22-.586.218-.587.216-.587.215-.588.212-.59.21-.6.2-.6.207-.59.206-.593.203-.592.202-.593.2-.596.2-.595.196-.596.195-.598.193-.596.192-.6.2-.6.374-1.2.184-.6.363-1.206.18-.604.177-.605.175-.606.173-.606.172-.607.17-.608.334-1.218.164-.61.162-.6.16-.61.16-.614.157-.613.308-1.228.15-.615.15-.616.147-.617.146-.617.144-.62.142-.62.14-.62.138-.62.137-.62.134-.62.133-.623.13-.623.128-.624.128-.626.125-.625.123-.626.12-.627.237-1.255.115-.63.114-.63.112-.63.11-.63.108-.632.106-.63.104-.634.102-.635.1-.633.1-.636.096-.636.094-.636.093-.637.1-.638.088-.64.087-.64.084-.64.083-.64.16-1.283.077-.643.074-.643.073-.644.07-.644.068-.644.067-.647.065-.646.063-.647.06-.648.06-.648.057-.65.054-.65.053-.65.05-.65.05-.652.047-.652.087-1.306.04-.654.04-.655.036-.655.034-.655.033-.657.03-.657.028-.658.026-.658.024-.66.022-.66.02-.66.018-.66.015-.66.014-.662.012-.663.01-.663.007-.663.006-.665.003-.665V250v-.665l-.003-.665-.006-.665-.007-.663-.01-.663-.012-.663-.014-.662-.015-.66-.018-.66-.02-.66-.022-.66-.024-.66-.026-.66-.028-.657-.03-.657-.033-.657-.034-.655-.036-.655-.04-.655-.04-.654-.087-1.306-.047-.652-.05-.652-.05-.65-.053-.65-.054-.65-.057-.65-.12-1.296-.063-.647-.065-.646-.067-.647-.068-.644-.07-.644-.073-.644-.074-.643-.077-.643-.08-.642-.08-.64-.083-.64-.084-.64-.087-.64-.088-.64-.1-.638-.093-.637-.094-.636-.096-.636-.1-.636-.1-.633-.102-.634-.104-.634-.106-.632-.108-.632-.11-.63-.112-.63-.114-.63-.115-.63-.237-1.255-.12-.627-.123-.625-.125-.626-.128-.626-.128-.624-.13-.623-.133-.623-.134-.62-.137-.62-.138-.62-.14-.62-.142-.62-.144-.618-.146-.618-.147-.617-.15-.616-.15-.615-.154-.615-.154-.613-.157-.613-.16-.614-.16-.61-.162-.6-.164-.61-.334-1.218-.17-.607-.172-.607-.173-.607-.175-.606-.177-.605-.18-.604-.18-.603-.182-.602-.184-.602-.187-.6-.187-.6-.2-.6-.192-.6-.193-.596-.195-.598-.196-.596-.2-.595-.2-.596-.202-.593-.203-.593-.206-.592-.208-.59-.21-.6-.21-.6-.212-.59-.215-.588-.216-.587-.218-.587-.22-.585-.22-.584-.223-.585-.225-.583-.455-1.164-.23-.58-.232-.58-.234-.58-.235-.577-.237-.577-.238-.576-.483-1.15-.244-.573-.245-.573-.247-.57-.5-1.142-.252-.568-.254-.57-.256-.568-.257-.565-.26-.566-.26-.565-.262-.564-.264-.562-.266-.563-.267-.56-.27-.56-.27-.56-.272-.56-.274-.557-.276-.557-.277-.555-.278-.553-.28-.555-.282-.552-.284-.552-.285-.55-.287-.55-.29-.55-.3-.548-.292-.547-.293-.545-.296-.545-.296-.544-.3-.543-.3-.542-.3-.542-.303-.54-.61-1.078-.308-.536-.31-.536-.31-.535-.313-.534-.314-.533-.316-.533-.317-.53-.32-.53-.32-.53-.322-.527-.323-.527-.325-.526-.327-.525-.328-.523-.33-.523-.33-.522-.333-.52-.334-.52-.336-.52-.338-.517-.34-.516-.34-.515-.342-.515-.343-.513-.345-.512-.347-.51-.348-.51-.7-1.016-.353-.506-.354-.506-.356-.505-.356-.503-.72-1.004-.36-.5-.363-.5-.364-.498-.366-.496-.367-.495-.37-.495-.37-.494-.37-.492-.373-.49-.375-.5-.375-.488-.377-.487-.38-.487-.38-.486-.382-.484-.383-.482-.385-.483-.385-.48-.776-.958-.39-.477-.784-.95-.395-.473-.396-.472-.397-.47-.4-.47-.4-.468-.4-.468-.403-.466-.404-.465-.405-.464-.407-.463-.408-.46-.4-.46-.41-.458-.412-.458-.414-.456-.415-.456-.417-.454-.417-.452-.42-.452-.42-.45-.42-.448-.848-.895-.853-.89-.428-.442-.43-.442-.43-.44-.432-.44-.434-.438-.435-.436-.436-.435-.438-.434-.438-.432-.44-.43-.442-.43-.442-.428-.444-.427-.446-.426-.446-.424-.447-.423-.45-.422-.45-.42-.45-.42-.907-.834-.455-.415-.915-.826-.458-.41-.46-.4-.462-.408-.462-.406-.464-.406-.465-.404-.466-.403-.468-.402-.47-.4-.47-.398-.47-.397-.946-.79-.475-.393-.476-.39-.477-.4-.958-.777-.48-.385-.482-.385-.483-.383-.484-.382-.486-.38-.486-.38-.488-.378-.488-.376-.5-.374-.49-.373-.493-.372-.493-.37-.494-.37-.992-.733-.498-.364-1-.725-.5-.36-.503-.36-.503-.357-.505-.355-.506-.354-.506-.353-.508-.35-.51-.35-.5-.348-.51-.346-.512-.346-.513-.343-.514-.342-.516-.34-.516-.34-.518-.338-.518-.336-1.04-.667-.522-.33-.523-.33-.524-.328-.524-.327-.526-.325-.527-.323-.528-.322-.53-.32-.53-.32-.53-.317-.533-.316-.533-.314-.534-.313-1.07-.62-.538-.308-.538-.306-.54-.305-.54-.303-.54-.3-.54-.3-.544-.3-.543-.296-.545-.295-.547-.294-.546-.292-.548-.3-.55-.29-.55-.287-.55-.285-.552-.284-.552-.282-1.108-.56-.556-.278-.556-.275-.557-.274-1.118-.543-.56-.27-.56-.267-.56-.266-.563-.264-.564-.262-.565-.26-.565-.26-.567-.257-.567-.256-.568-.254-.57-.252-.57-.25-1.143-.496-1.146-.49-.575-.242-.575-.24-.576-.238-.577-.237-.578-.235-.58-.234-.58-.232-.58-.23-.58-.228-.582-.227-.583-.225-.584-.223-.585-.22-.585-.22-.587-.218-.587-.216-.588-.215-.59-.212-.59-.21-1.182-.417-.592-.206-1.187-.406-.595-.2-.595-.198-.596-.197-.597-.195-.598-.193-.598-.192-.6-.2-.6-.187-.6-.186-.6-.185-.603-.182-.603-.18-.604-.18-.605-.177-.606-.175-1.213-.345-.608-.17-.61-.168-.61-.166-.6-.164-.61-.162-.612-.16-.612-.16-.613-.157-.614-.155-.615-.153-.615-.15-.617-.15-.616-.147-.618-.146-.618-.144-.62-.142-.62-.14-.62-.138-.62-.137-.62-.134-.623-.133-.624-.13-.624-.13-.625-.127-.625-.125-.626-.123-.627-.12-.628-.12-.628-.118-.63-.115-.63-.114-.63-.112-.63-.1-.632-.107-.632-.106-.633-.104-.634-.102-.635-.1-.635-.1-.636-.096-.636-.094-.637-.093-.638-.1-.638-.088-.64-.087-.64-.084-.64-.083-.64-.08-.642-.08-.642-.077-.644-.074-.643-.073-.645-.07-1.29-.135-.646-.065-.647-.062-.648-.06-.648-.06-.65-.057-1.3-.107-.65-.05-.652-.05-.652-.047-.653-.044-.653-.043-1.308-.08-.656-.036-.655-.034-.657-.033-.657-.03-.658-.028-.658-.026-.66-.024-.66-.022-.66-.02-.66-.018-.66-.015-.662-.014-.663-.012-.663-.01-.663-.007-.665-.006-.665-.003H250h-.665z"/></svg>