<svg xmlns="http://www.w3.org/2000/svg" width="100%" height="100%" viewBox="0 0 51 51" fill-rule="evenodd" stroke-linejoin="round" stroke-miterlimit="2"><path d="M31.406 25.093L49.264 7.235c1.624-1.623 1.624-4.294 0-5.917s-4.294-1.624-5.918 0L25.488 19.176 7.63 1.318c-1.623-1.624-4.294-1.624-5.918 0C.9 2.13.482 3.203.482 4.276s.42 2.148 1.23 2.96L19.57 25.093 1.712 42.952c-.81.81-1.23 1.885-1.23 2.958s.42 2.148 1.23 2.96c1.624 1.624 4.295 1.624 5.918 0L25.488 31.01 43.346 48.87c1.624 1.624 4.295 1.624 5.918 0s1.624-4.294 0-5.917l-17.858-17.86z" fill-rule="nonzero"/></svg>