<svg xmlns="http://www.w3.org/2000/svg" width="100%" height="100%" viewBox="0 0 44 51" fill-rule="evenodd" stroke-linejoin="round" stroke-miterlimit="2"><path d="M43.638 12.968l.12-.08c-.242-.445-.606-.85-.97-1.05L23.266.6c-.323-.202-.768-.283-1.253-.283s-.93.12-1.253.283L1.358 11.877C.67 12.28.186 13.292.186 14.06v22.514c0 .445.08.93.364 1.374l-.08.04c.202.323.485.606.768.768L20.72 50.034c.324.202.768.283 1.254.283s.93-.12 1.253-.283l19.4-11.277c.687-.405 1.173-1.415 1.173-2.183V14.02a1.98 1.98 0 0 0-.162-1.051zM22.013 41.263c-8.812 0-15.966-7.155-15.966-15.966S13.2 9.33 22.013 9.33c5.942 0 11.116 3.274 13.864 8.084l-5.255 3.03a9.86 9.86 0 0 0-8.609-5.052c-5.457 0-9.903 4.446-9.903 9.903s4.446 9.903 9.903 9.903c3.678 0 6.912-2.02 8.61-5.012l5.215 3.072c-2.75 4.77-7.923 8.003-13.824 8.003zm20.614-16.775h-1.293l-.364 1.617h1.657v2.02h-2.02l-.485 2.425h-1.98l.485-2.425H37.1l-.485 2.425h-1.94l.486-2.425h-1.01v-2.02h1.415l.364-1.617h-1.78v-2.02h2.142l.485-2.425h1.98l-.485 2.425h1.536l.485-2.425h1.94l-.485 2.425h.89v2.02zm-5.133 1.617h1.536l.364-1.617h-1.536l-.364 1.617z" fill-rule="nonzero"/></svg>