<svg xmlns="http://www.w3.org/2000/svg" width="100%" height="100%" viewBox="0 0 38 44" fill-rule="evenodd" stroke-linejoin="round" stroke-miterlimit="2"><path d="M25.04 20.847c0 1.288-.95 2.344-2.153 2.344-1.183 0-2.154-1.056-2.154-2.344s.95-2.343 2.154-2.343 2.153 1.055 2.153 2.343zm-9.86-2.343c-1.203 0-2.153 1.055-2.153 2.343s.97 2.344 2.153 2.344c1.203 0 2.153-1.056 2.153-2.344.022-1.288-.95-2.343-2.153-2.343zM37.475 5.14v37.873c-5.318-4.7-3.617-3.144-9.795-8.888l1.12 3.906H4.86a4.34 4.34 0 0 1-4.328-4.349V5.14A4.34 4.34 0 0 1 4.859.792h28.29c2.385 0 4.327 1.942 4.327 4.35zM31.46 25.154c0-6.798-3.04-12.308-3.04-12.308-3.04-2.28-5.932-2.217-5.932-2.217l-.296.338c3.59 1.098 5.257 2.68 5.257 2.68-5.015-2.748-10.906-2.75-15.77-.612-.78.36-1.246.612-1.246.612s1.752-1.667 5.552-2.765l-.21-.254s-2.892-.063-5.932 2.217c0 0-3.04 5.5-3.04 12.308 0 0 1.773 3.06 6.44 3.21l1.414-1.752c-2.68-.803-3.694-2.492-3.694-2.492.3.218.823.5.865.528 3.564 1.996 8.625 2.65 13.174.74.74-.274 1.562-.675 2.428-1.245 0 0-1.056 1.73-3.822 2.512.634.802 1.394 1.7 1.394 1.7 4.665-.148 6.46-3.21 6.46-3.21z" fill-rule="nonzero"/></svg>