<svg xmlns="http://www.w3.org/2000/svg" width="100%" height="100%" viewBox="0 0 50 51" fill-rule="evenodd" stroke-linejoin="round" stroke-miterlimit="2"><path d="M49.063 23.133L27.233 1.298a3.24 3.24 0 0 0-4.556 0l-4.54 4.535 5.75 5.752c3.02-1.02 5.88 1.872 4.844 4.876l5.544 5.544c3.82-1.317 6.83 3.46 3.96 6.328-2.958 2.958-7.838-.32-6.252-4.168l-5.174-5.168V32.6c2.824 1.4 2.485 4.672 1.013 6.14-1.487 1.486-3.933 1.486-5.42 0-1.96-1.965-1.235-5.237 1.256-6.252v-13.73c-2.322-.95-2.746-3.43-2.08-5.023L15.9 8.057.937 23.032a3.24 3.24 0 0 0 0 4.556l21.837 21.835a3.24 3.24 0 0 0 4.555 0L49.063 27.69a3.24 3.24 0 0 0 0-4.556z" fill-rule="nonzero"/></svg>