<svg xmlns="http://www.w3.org/2000/svg" width="100%" height="100%" viewBox="0 0 44 43" fill-rule="evenodd" stroke-linejoin="round" stroke-miterlimit="2"><path d="M14.637 33.41c0 .17-.196.307-.443.307-.28.025-.476-.11-.476-.307 0-.17.196-.306.442-.306.256-.026.477.11.477.306zM12 33.028c-.06.17.1.366.366.417.22.086.476 0 .527-.17s-.1-.366-.366-.442c-.22-.06-.468.025-.527.195zm3.762-.144c-.247.06-.417.22-.39.417.025.17.246.28.502.22.247-.06.417-.22.39-.39-.025-.162-.255-.273-.502-.247zm5.6-32.62C9.547.264.515 9.227.515 21.034c0 9.44 5.942 17.52 14.43 20.362 1.09.196 1.472-.477 1.472-1.03l-.025-5.227s-5.96 1.277-7.2-2.536c0 0-.97-2.477-2.367-3.116 0 0-1.95-1.336.136-1.31 0 0 2.12.17 3.286 2.196 1.864 3.286 4.988 2.34 6.206 1.78.196-1.362.75-2.307 1.362-2.87-4.76-.528-9.56-1.217-9.56-9.407 0-2.34.647-3.515 2.01-5.013-.22-.554-.945-2.835.22-5.78 1.78-.554 5.874 2.298 5.874 2.298 1.703-.477 3.533-.724 5.346-.724s3.643.247 5.346.724c0 0 4.094-2.86 5.874-2.298 1.166 2.953.442 5.226.22 5.78 1.362 1.506 2.196 2.68 2.196 5.013 0 8.215-5.014 8.87-9.772 9.407.783.672 1.447 1.95 1.447 3.95l-.026 7.116c0 .553.392 1.226 1.473 1.03 8.512-2.826 14.284-10.904 14.284-20.345 0-11.807-9.577-20.77-21.384-20.77zM8.79 29.623c-.11.085-.085.28.06.443.136.136.332.196.442.085.11-.085.085-.28-.06-.443-.137-.136-.332-.195-.443-.085zm-.92-.69c-.06.1.025.247.195.332.137.085.307.06.366-.06.06-.1-.025-.247-.195-.332-.17-.05-.307-.025-.366.06zm2.758 3.03c-.137.11-.085.366.1.528.196.196.443.22.554.085.1-.1.06-.366-.11-.528-.187-.195-.443-.22-.553-.085zm-.97-1.25c-.136.085-.136.306 0 .502s.366.28.477.196c.136-.11.136-.332 0-.528-.12-.196-.34-.28-.477-.17z" fill-rule="nonzero"/></svg>