<svg xmlns="http://www.w3.org/2000/svg" width="100%" height="100%" viewBox="0 0 38 51" fill-rule="evenodd" stroke-linejoin="round" stroke-miterlimit="2"><path d="M27.07 30.695c.957-.655 2.285-1.22 2.285-1.22l-7.54.996c-4.6.38-9.54.46-12.02.127-5.87-.78 3.223-2.94 3.223-2.94s-3.526-.235-7.87 1.855C.02 31.994 17.84 33.126 27.07 30.695zm-8.34-3.135c-1.855-4.17-8.115-7.832 0-14.238C28.852 5.334 23.66.138 23.66.138c2.1 8.252-7.383 10.752-10.8 15.88-2.334 3.506 1.142 7.266 5.878 11.543zM29.92 10.353c.01 0-17.1 4.277-8.936 13.69 2.412 2.774-.635 5.274-.635 5.274s6.123-3.164 3.31-7.12c-2.627-3.692-4.64-5.528 6.26-11.846zm-.596 26.416a1.2 1.2 0 0 1-.195.254c12.53-3.29 7.92-11.61 1.933-9.502-.323.12-.603.333-.8.615a7 7 0 0 1 1.075-.293c3.027-.635 7.373 4.053-2.012 8.926zm4.605 6.084s1.416 1.162-1.552 2.07c-5.655 1.71-23.516 2.227-28.477.068-1.787-.77 1.563-1.855 2.618-2.08 1.093-.234 1.728-.195 1.728-.195C6.265 41.32-4.575 45.46 2.74 46.642c19.945 3.242 36.367-1.455 31.19-3.79zM12.1 38.8c-7.686 2.148 4.677 6.582 14.462 2.392-.954-.37-1.875-.82-2.754-1.347-4.365.83-6.386.888-10.35.44-3.27-.37-1.357-1.484-1.357-1.484zm17.558 9.492c-7.685 1.445-17.168 1.28-22.783.35 0-.01 1.152.948 7.07 1.33 9.004.576 22.832-.323 23.154-4.58 0 0-.625 1.61-7.44 2.9zM25.4 34.61c-5.78 1.113-9.13 1.084-13.36.644-3.27-.342-1.133-1.924-1.133-1.924-8.476 2.813 4.707 5.996 16.553 2.53a5.91 5.91 0 0 1-2.061-1.25z" fill-rule="nonzero"/></svg>