<svg xmlns="http://www.w3.org/2000/svg" width="100%" height="100%" viewBox="0 0 51 51" fill-rule="evenodd" stroke-linejoin="round" stroke-miterlimit="2"><path d="M.333.782v50h50v-50h-50zm27.2 38.995c0 4.866-2.857 7.087-7.02 7.087-3.76 0-5.937-1.942-7.054-4.297l3.83-2.3c.736 1.306 1.406 2.41 3.024 2.41 1.54 0 2.522-.603 2.522-2.958V23.74h4.7v16.038zm11.116 7.087c-4.364 0-7.187-2.076-8.56-4.8l3.828-2.2c1.005 1.64 2.322 2.857 4.632 2.857 1.942 0 3.192-.97 3.192-2.32 0-1.607-1.273-2.176-3.427-3.125l-1.17-.502c-3.393-1.44-5.637-3.26-5.637-7.087 0-3.527 2.7-6.206 6.875-6.206 2.99 0 5.134 1.038 6.674 3.76l-3.66 2.344c-.804-1.44-1.674-2.01-3.025-2.01-1.373 0-2.243.87-2.243 2.01 0 1.406.87 1.976 2.89 2.857l1.17.503c3.996 1.707 6.24 3.46 6.24 7.388 0 4.22-3.326 6.54-7.78 6.54z" fill-rule="nonzero"/></svg>