<svg xmlns="http://www.w3.org/2000/svg" width="100%" height="100%" viewBox="0 0 51 30" fill-rule="evenodd" stroke-linejoin="round" stroke-miterlimit="2"><path d="M48.432 4.583H2.6A2.09 2.09 0 0 1 .515 2.5 2.09 2.09 0 0 1 2.599.417h45.833A2.09 2.09 0 0 1 50.515 2.5a2.09 2.09 0 0 1-2.083 2.083zm0 12.5H2.6A2.09 2.09 0 0 1 .515 15a2.09 2.09 0 0 1 2.084-2.083h45.833A2.09 2.09 0 0 1 50.515 15a2.09 2.09 0 0 1-2.083 2.083zm0 12.5H2.6A2.09 2.09 0 0 1 .515 27.5a2.09 2.09 0 0 1 2.084-2.083h45.833a2.09 2.09 0 0 1 2.083 2.083 2.09 2.09 0 0 1-2.083 2.083z" fill-rule="nonzero"/></svg>