<svg xmlns="http://www.w3.org/2000/svg" width="100%" height="100%" viewBox="0 0 51 50" fill-rule="evenodd" stroke-linejoin="round" stroke-miterlimit="2"><path d="M49.73 48.445l-1.037-1.006c-.983-1.305-2.247-2.452-3.574-3.403-1.06-.76-3.434-1.786-3.876-3.017l-.08-.077c.75-.085 1.627-.357 2.32-.542 1.163-.312 2.124-.232 3.325-.542l1.546-.464v-.31c-.397-.623-.962-1.448-1.625-2.01-1.732-1.475-3.584-2.95-5.53-4.178-1.08-.68-2.395-1.124-3.54-1.702-.385-.194-1.05-.295-1.306-.62-.6-.766-.923-1.737-1.386-2.63l-2.783-5.88c-.587-1.34-.97-2.664-1.7-3.868-3.512-5.775-7.293-9.26-13.15-12.687-1.247-.728-2.747-1.016-4.333-1.393l-2.552-.155c-.52-.216-1.06-.852-1.547-1.16C6.958 1.576 1.982-1.1.544 2.415-.363 4.628 1.9 6.787 2.7 7.908c.57.786 1.296 1.668 1.702 2.553.268.58.313 1.164.542 1.78.562 1.516 1.05 3.164 1.78 4.564.367.71.773 1.455 1.238 2.09.284.39.773.56.85 1.16-.477.67-.505 1.707-.773 2.553-1.21 3.812-.753 8.55 1.006 11.372.54.867 1.8 2.724 3.558 2.012 1.53-.623 1.28-2.553 1.716-4.255.1-.386-.073-.67.324-.928v.077a50.39 50.39 0 0 0 1.301 2.785c1.03 1.66 2.73 3.394 4.28 4.565.803.607 1.554 1.656 2.347 2.01v-.04h.088c-.2-.397-.517-.463-.774-.715-.605-.593-1.28-1.34-1.78-2.02-1.41-1.914-2.655-4.013-3.8-6.194-.543-1.04-1.014-2.192-1.47-3.25-.175-.41-.173-1.028-.54-1.24-.5.776-1.238 1.403-1.626 2.32-.618 1.466-.698 3.253-.928 5.106-.136.048-.075.015-.155.077-1.077-.26-1.456-1.37-1.856-2.32-1.013-2.407-1.2-6.28-.3-9.05.23-.717 1.273-2.974.85-3.636-.202-.66-.866-1.043-1.238-1.548-.46-.624-.92-1.445-1.238-2.166-.83-1.876-1.215-3.982-2.088-5.88-.418-.907-1.123-1.824-1.702-2.63-.64-.893-1.36-1.55-1.857-2.63-.177-.383-.417-.998-.155-1.392a.61.61 0 0 1 .464-.464c.45-.346 1.698.115 2.166.31 1.24.515 2.276.99 3.327 1.687.504.335 1.015.75 1.625 1.146h.696c1.09 0 2.31.092 3.327.4 1.798.547 3.41 1.404 4.873 2.328 4.46 2.816 8.104 6.828 10.598 11.608.402.77.575 1.506.928 2.323.713 1.646 1.612 3.34 2.32 4.95s1.398 3.228 2.4 4.565c.526.703 2.557 1.08 3.48 1.47.647.273 1.708.558 2.32.927 1.17.707 2.305 1.548 3.404 2.322.548.386 2.236 1.234 2.32 1.934-2.72-.075-4.8.18-6.575.928-.505.213-1.31.22-1.393.85.277.29.32.725.54 1.083.424.686 1.14 1.606 1.78 2.088.7.528 1.418 1.09 2.167 1.547 1.332.812 2.817 1.276 4.1 2.09.755.48 1.57 1.084 2.305 1.624.365.268.353.684 1.146.852v-.077c-.396-.316-.375-.75-.603-1.082zM11.684 9.07c-.568-.01-.997.062-1.394.154v.058h.08c.27.396.748.923 1.083 1.402l.774 1.63.076-.074c.48-.338.7-.877.696-1.7-.19-.202-.22-.455-.386-.696-.22-.32-.65-.502-.928-.772z" fill-rule="nonzero"/></svg>