<svg xmlns="http://www.w3.org/2000/svg" width="100%" height="100%" viewBox="0 0 51 28" fill-rule="evenodd" stroke-linejoin="round" stroke-miterlimit="2"><path d="M25.333 2.124c13.39 0 23.688 5.64 23.688 11.836S38.716 25.796 25.333 25.796c-13.4 0-23.687-5.64-23.687-11.836S11.95 2.124 25.333 2.124m0-1.312c-13.804 0-25 5.882-25 13.148s11.196 13.148 25 13.148 25-5.882 25-13.148S39.138.812 25.333.812zM17.38 12.905c-.617 3.164-2.797 2.836-5.476 2.836l1.07-5.515c2.97 0 4.984-.32 4.406 2.68zm-9.437 8.422H10.8l.68-3.5c3.21 0 5.203.235 7.046-1.492 2.04-1.875 2.57-5.21 1.118-6.883-.758-.875-1.977-1.305-3.633-1.305h-5.524l-2.554 13.18zM22.45 4.64h2.85l-.68 3.5c2.46 0 4.743-.18 5.844.836 1.156 1.062.602 2.42-.648 8.836h-2.89c1.203-6.204 1.43-6.72.992-7.188-.422-.453-1.383-.36-3.703-.36l-1.47 7.547h-2.85L22.45 4.64zm17.335 8.265c-.625 3.21-2.867 2.836-5.476 2.836l1.07-5.515c2.985 0 4.985-.32 4.406 2.68zm-9.437 8.422h2.875l.68-3.5c3.375 0 5.242.195 7.047-1.492 2.04-1.875 2.57-5.21 1.117-6.883-.758-.875-1.977-1.305-3.633-1.305H32.91l-2.562 13.18z" fill-rule="nonzero"/></svg>