<svg xmlns="http://www.w3.org/2000/svg" width="100%" height="100%" viewBox="0 0 51 51" fill-rule="evenodd" stroke-linejoin="round" stroke-miterlimit="2"><path d="M20.358 16.527c-1.46-.367-2.924-.25-4.468-.01l.014 7.957c.001.134.203.368.334.386 1.684.227 3.358.246 4.933-.522 1.63-.793 2.46-2.453 2.244-4.4-.196-1.775-1.246-2.956-3.057-3.41zm30.458 8.868V1.316c0-.83.01-.906-.8-.906H1.8c-.786 0-.984.075-.984.867v48.218c0 .8.1.802.876.802l48.328.014c.624.001.792-.165.8-.777l.006-24.14zM22.78 27.712c-2.205.787-4.505.83-6.886.646v8.956H11.53v-.556l-.055-22.493c-.003-.623.096-.923.798-.995 3.306-.338 6.594-.718 9.88.053 3.534.828 5.572 3.165 5.727 6.393.192 3.997-1.565 6.736-5.1 7.996zm17.583 5.06c-.168 2.3-1.46 3.794-3.577 4.52-2.834.973-5.653.747-8.423-.354-.453-.18-.54-.41-.39-.87l.682-2.494 3.438.975c.815.143 1.695.06 2.524-.07.742-.116 1.276-.62 1.398-1.417.124-.8-.12-1.512-.835-1.943-.57-.342-1.195-.586-1.795-.873-.966-.462-1.995-.824-2.885-1.4-3.504-2.273-2.364-6.5-.025-8.094 1.25-.85 2.636-1.23 4.118-1.28 1.743-.06 3.422.24 5.07 1.04l-.87 3.09c-.7-.245-1.333-.562-2.012-.69-.805-.15-1.65-.233-2.462-.167-1.1.09-1.728.84-1.728 1.774 0 .552.2 1.02.67 1.288.66.384 1.362.7 2.058 1.023l2.27 1.013c1.932 1.06 2.938 2.698 2.774 4.93z"/></svg>