<svg xmlns="http://www.w3.org/2000/svg" width="100%" height="100%" viewBox="0 0 51 50" fill-rule="evenodd" stroke-linejoin="round" stroke-miterlimit="2"><path d="M36.363 37.775L46.99 47.21l-20.914-1.643c4.097-2.475 7.48-5.434 10.01-7.786a.56.56 0 0 0 .132.01c.046.005.092-.005.143-.015zm11.766 5.638l1.96-25.645c-.97 2.475-2.5 5.358-4.485 8.434l2.526 17.21zm-11.057-6.22l10.608 9.414-2.832-19.262c-2.337 3.47-5.138 7.02-7.776 9.848zm-12.388 9.18c-2.286 1.266-4.638 2.276-7.016 3.01l24.44-1.643-17.424-1.368zM4.274 34.02l6.404 14.96 5.27-17.456L4.274 34.02zM17.5 30.636l17.828 5.725-4.55-18.026-13.277 12.3zM31.776 16.55l16.618-1.113-13-10.613-3.628 11.726zM41.226.196L30.322.144l4.847 3.394L41.226.196zm-40.14 27.48L.728 38.3l2.617-4.77-2.26-5.863zm5.96 4.27c2.07.132 4.168-.327 6.28-1.25 1.423-.674 2.898-1.526 4.383-2.53 2.122-1.5 4.265-3.378 6.424-5.516 7.755-7.69 10.944-16.292 7.55-19.715-.81-.817-1.97-1.235-3.444-1.24-4.47-.02-11.144 3.342-16.838 8.985-5.434 5.393-8.965 11.792-8.98 16.307-.005 1.607.44 2.868 1.32 3.76.78.79 1.893 1.112 3.302 1.2zm16.2 14.17l.724-.383-7.18-13.842-5.398 17.884.408-.052a29.94 29.94 0 0 0 1.398-.209c2.964-.505 5.903-1.433 8.725-2.755.444-.204.888-.418 1.322-.643zm14.65-11.42l.168-.194.357-.423.5-.613.72-.888.663-.836.69-.893a81.4 81.4 0 0 0 1.602-2.189 85.03 85.03 0 0 0 1.704-2.505l-.97-.592-11.174-6.853 4.413 17.476c.413-.45.847-.94 1.317-1.5zM50.35 6.563l-13.72-1.928 13.083 10.7c.46-1.515.76-2.985.888-4.372.02-.194.03-.388.04-.587.01-.184.015-.362.02-.546.036-1.184-.07-2.28-.31-3.266zM45.073 25.33c.036-.046.07-.092.112-.153.26-.368.633-.975 1.046-1.704 1.148-2.026 2.567-4.92 3.158-7.047l-17.062 1.138 12.725 7.797c.006-.01.016-.02.02-.03zM24.617 45.525l.05-.03c3.725-2.062 7.052-4.603 10.777-8.23l-18.14-5.852 7.31 14.113zm-23.95-5.3c.08 2.362.58 4.31 1.5 5.81l.847-10.092-2.337 4.28zm3.306-4.944l-.98 11.643c1.393 1.822 3.256 2.638 6.02 2.638.28 0 .567-.01.878-.02l-.5-1.215-5.43-13.046zM50.145 5.844c-.2-.618-.46-1.184-.766-1.694C48.144 2.094 46.012.777 43.032.236L36.383 3.9l13.762 1.934z" fill-rule="nonzero"/></svg>