<svg xmlns="http://www.w3.org/2000/svg" width="100%" height="100%" viewBox="0 0 52 52" fill-rule="evenodd" stroke-linejoin="round" stroke-miterlimit="2"><path d="M25.694 41.877c1.05 0 1.903.852 1.903 1.902v5.708c0 1.05-.853 1.902-1.903 1.902s-1.902-.852-1.902-1.902V43.78c0-1.05.852-1.902 1.902-1.902zm14.132-4.744l4.04 4.04c.358.358.556.84.556 1.346a1.9 1.9 0 0 1-1.903 1.903c-.506 0-.988-.198-1.346-.556l-4.04-4.04a1.91 1.91 0 0 1 0-2.693 1.9 1.9 0 0 1 1.347-.555c.506 0 .988.197 1.346.555zm-26.917-.555c.507 0 .988.197 1.346.555a1.91 1.91 0 0 1 0 2.693l-4.04 4.04c-.358.358-.84.556-1.346.556a1.9 1.9 0 0 1-1.903-1.903c0-.506.198-.988.556-1.346l4.04-4.04a1.9 1.9 0 0 1 1.347-.555zm12.785-22.743c-6.534 0-11.86 5.325-11.86 11.86s5.325 11.86 11.86 11.86a11.88 11.88 0 0 0 11.859-11.859c0-6.534-5.324-11.86-11.86-11.86zm-.052 3.792a8.07 8.07 0 0 0-8.016 8.067 8.07 8.07 0 0 0 8.068 8.068V17.626l-.052.001zM7.6 23.792c1.05 0 1.902.852 1.902 1.902S8.66 27.597 7.6 27.597H1.902C.852 27.597 0 26.744 0 25.694s.852-1.902 1.902-1.902H7.6zm41.877 0c1.05 0 1.902.852 1.902 1.902s-.852 1.903-1.902 1.903H43.78c-1.05 0-1.902-.853-1.902-1.903s.852-1.902 1.902-1.902h5.708zm-39.27-16.27l4.04 4.04c.36.358.556.84.556 1.346s-.197.988-.556 1.346-.84.556-1.346.556-.988-.197-1.347-.556l-4.04-4.04c-.358-.358-.556-.84-.556-1.346A1.9 1.9 0 0 1 8.87 6.967c.506 0 .988.198 1.346.556zM38.48 14.81c-.507 0-.988-.197-1.347-.556s-.555-.84-.555-1.346.197-.988.555-1.346l4.04-4.04c.358-.358.84-.556 1.346-.556a1.9 1.9 0 0 1 1.903 1.903c0 .506-.198.988-.556 1.346l-4.04 4.04c-.358.36-.84.556-1.346.556zM25.694 0c1.05 0 1.903.852 1.903 1.902V7.6c0 1.05-.853 1.902-1.903 1.902S23.792 8.66 23.792 7.6V1.902c0-1.05.852-1.902 1.902-1.902z"/></svg>