<svg xmlns="http://www.w3.org/2000/svg" width="100%" height="100%" viewBox="0 0 50 51" fill-rule="evenodd" stroke-linejoin="round" stroke-miterlimit="2"><path d="M0 25.14v25h50v-50H0v25zm40.293-1.992c1.27.317 2.238.88 3.128 1.802.46.492 1.142 1.39 1.198 1.603.016.062-2.16 1.523-3.477 2.34-.046.03-.238-.174-.453-.492-.643-.938-1.317-1.342-2.35-1.413-1.515-.103-2.5.69-2.484 2.016 0 .39.055.62.214.937.334.69.953 1.104 2.897 1.946 3.58 1.54 5.11 2.554 6.062 4 1.063 1.6 1.302 4.182.58 6.095-.794 2.08-2.762 3.492-5.53 3.96-.857.15-2.89.128-3.8-.04-2.007-.357-3.912-1.35-5.087-2.65-.46-.508-1.357-1.834-1.3-1.93.023-.03.23-.158.46-.294l1.857-1.07 1.438-.833.3.445c.42.643 1.342 1.523 1.897 1.817 1.596.84 3.786.722 4.865-.246.46-.42.65-.857.65-1.5 0-.58-.07-.834-.373-1.27-.39-.554-1.183-1.023-3.437-2-2.58-1.1-3.69-1.8-4.706-2.896-.588-.635-1.143-1.65-1.374-2.5-.2-.706-.238-2.477-.087-3.19.53-2.5 2.412-4.23 5.127-4.746.88-.166 2.93-.103 3.793.11l.001-.003zm-11.738 2.086l.016 2.047h-6.508v18.49H17.46V27.28h-6.507v-2.008l.054-2.062c.024-.032 3.985-.047 8.786-.04l8.738.023.024 2.04z" fill-rule="nonzero"/></svg>