<svg xmlns="http://www.w3.org/2000/svg" width="100%" height="100%" viewBox="0 0 43 35" fill-rule="evenodd" stroke-linejoin="round" stroke-miterlimit="2"><path d="M37.877 9.08l.027 1.125c0 11.44-8.707 24.62-24.62 24.62-4.902 0-9.457-1.42-13.288-3.885.697.08 1.366.107 2.1.107a17.33 17.33 0 0 0 10.743-3.697c-3.804-.08-6.993-2.572-8.09-6a10.96 10.96 0 0 0 1.634.134c.777 0 1.554-.107 2.278-.295-3.965-.804-6.94-4.286-6.94-8.493V12.6a8.72 8.72 0 0 0 3.911 1.099C3.3 12.135 1.763 9.483 1.763 6.482a8.59 8.59 0 0 1 1.179-4.367c4.26 5.25 10.663 8.68 17.843 9.055-.134-.643-.215-1.312-.215-1.982 0-4.77 3.858-8.654 8.654-8.654a8.63 8.63 0 0 1 6.322 2.733 17.03 17.03 0 0 0 5.493-2.09c-.644 2-2 3.698-3.805 4.77 1.742-.187 3.43-.67 4.983-1.34-1.178 1.714-2.652 3.24-4.34 4.474z" fill-rule="nonzero"/></svg>